PathFileType	4	(X/Y/Z)	Trial5455_Both_Hips_markers_cropped.trc
DataRate	CameraRate	NumFrames	NumMarkers	Units	OrigDataRate	OrigDataStartFrame	OrigNumFrames																																																																																													
200	200	6	27	m	200	75	101
Frame#	Time	R_ASIS			L_ASIS			Sacral			L_Thigh_Superior			L_Thigh_Inferior			L_Thigh_Lateral			L_Shank_Superior			L_Shank_Inferior			L_Shank_Lateral			L_Heel			L_Midfoot_Superior			L_Midfoot_Lateral			L_Toe			R_Thigh_Superior			R_Thigh_Inferior			R_Thigh_Lateral			R_Shank_Superior			R_Shank_Lateral			R_Shank_Inferior			R_Heel			R_Midfoot_Superior			R_Midfoot_Lateral			R_Toe
		X1	Y1	Z1	X2	Y2	Z2	X3	Y3	Z3	X4	Y4	Z4	X5	Y5	Z5	X6	Y6	Z6	X7	Y7	Z7	X8	Y8	Z8	X9	Y9	Z9	X10	Y10	Z10	X11	Y11	Z11	X12	Y12	Z12	X13	Y13	Z13	X14	Y14	Z14	X15	Y15	Z15	X16	Y16	Z16	X17	Y17	Z17	X18	Y18	Z18	X19	Y19	Z19	X20	Y20	Z20	X21	Y21	Z21	X22	Y22	Z22	X23	Y23	Z23

76	   0.375	   -0.59653007533081	    0.94358727233153	   -0.46509880492125	   -0.59388111364057	    0.94042429361063	   -0.73602239137870	   -0.79453045695084	    1.04382206837904	   -0.60295687396847	   -0.57310301670545	    0.73578144202122	   -0.69018485068931	   -0.59717129565239	    0.54562305623666	   -0.67774849250749	   -0.66384903374465	    0.63331802452776	   -0.75357345472878	   -0.62290888883175	    0.41248577364134	   -0.67023073003828	   -0.65261176306950	    0.18757592552658	   -0.63392781855112	   -0.70411598758377	    0.29000538168702	   -0.71877916844828	   -0.77634438330211	    0.03220903630891	   -0.58593543340541	   -0.61833482965928	    0.09065533105213	   -0.63644687607419	   -0.69830110448198	    0.02853825649340	   -0.66425186282260	   -0.48785961327760	    0.04295243424026	   -0.65357153303315	   -0.62892718074725	    0.72038585714172	   -0.47871641899796	   -0.68767503002151	    0.56296820193705	   -0.49175581374377	   -0.75296694142714	    0.64389852419543	   -0.42573215766433	   -0.79764368118053	    0.41361811803890	   -0.47312626064154	   -0.91973777161628	    0.25406224872837	   -0.47273763917088	   -0.92520341195837	    0.36751284315310	   -0.42746072040389	   -1.11000848942670	    0.16066048045285	   -0.52834965180401	   -0.94536503354281	    0.14199671601849	   -0.45130704074097	   -1.05734967760145	    0.13127552109055	   -0.43450024111103	   -0.87202387184748	    0.05357835082621	   -0.38624881896639
77	   0.380	   -0.59355168072604	    0.94772881447857	   -0.46532902165358	   -0.59076144006523	    0.94272012630272	   -0.73553463301323	   -0.79432781601411	    1.04118383655656	   -0.60277663440840	   -0.56886506428108	    0.73688144346042	   -0.68887217474866	   -0.59360301250527	    0.54633756395214	   -0.67757592058530	   -0.66004228986499	    0.63431441871617	   -0.75257587117111	   -0.61988642640266	    0.41216669052304	   -0.66953318619175	   -0.65130127000211	    0.18729468774094	   -0.63348063112032	   -0.70208355097220	    0.29035110072086	   -0.71802688089540	   -0.77631803991162	    0.03225971920598	   -0.58591330084794	   -0.61817398033961	    0.09062118469725	   -0.63634722387312	   -0.69823130450178	    0.02860998499688	   -0.66419796526593	   -0.48778507501225	    0.04270345585589	   -0.65358027739091	   -0.61221006528262	    0.72494894192645	   -0.47818413455098	   -0.66061087222718	    0.56405930289436	   -0.48979104744571	   -0.73024227126293	    0.64124463556418	   -0.42343779356596	   -0.76229345605717	    0.40912088153799	   -0.46907663216275	   -0.87562484888327	    0.24411519532681	   -0.46750331509943	   -0.88689697350695	    0.35702735352456	   -0.42305367838531	   -1.06027889673151	    0.14020794279528	   -0.52251423750108	   -0.89532495792551	    0.13205836134375	   -0.44514449349512	   -1.00609904556756	    0.11465630024285	   -0.42845824096212	   -0.81711489086455	    0.04877811473060	   -0.37943413140923
78	   0.385	   -0.59219927481858	    0.95227347578758	   -0.46528294908736	   -0.58771968201666	    0.94473783418075	   -0.73486767602339	   -0.79463155669785	    1.03887182941148	   -0.60349605653583	   -0.56502736970076	    0.73841534580981	   -0.68639912621557	   -0.58958520109898	    0.54715624883222	   -0.67674715754474	   -0.65555201717422	    0.63515388858653	   -0.75139410199812	   -0.61638509053112	    0.41173736015751	   -0.66847318928129	   -0.64970672495058	    0.18696120197921	   -0.63282559410565	   -0.69942267541112	    0.29067536843352	   -0.71714727954487	   -0.77631176035913	    0.03231119560796	   -0.58592242490417	   -0.61800350839260	    0.09056055539128	   -0.63617481743032	   -0.69820726224956	    0.02871455632536	   -0.66420636258706	   -0.48769684312593	    0.04239595575836	   -0.65359956122943	   -0.59821135383299	    0.73124227654229	   -0.47537711930699	   -0.63663511274886	    0.56793589363402	   -0.48403638790689	   -0.71079889595483	    0.64172696340733	   -0.41872412624049	   -0.72763907619823	    0.40789022808040	   -0.46076818730306	   -0.82823265420170	    0.23573895155247	   -0.45740689581100	   -0.84802400126582	    0.34770271457785	   -0.41464839504742	   -1.00380732990547	    0.11760405038089	   -0.51185455857025	   -0.83959898614573	    0.12352308003524	   -0.43360728923031	   -0.94844055047866	    0.09734822366137	   -0.41734825200262	   -0.75558828849011	    0.04751397856141	   -0.36677600061565
79	   0.390	   -0.59240455420310	    0.95692028384367	   -0.46487565846146	   -0.58472502018401	    0.94617800602275	   -0.73413093930873	   -0.79529758615321	    1.03687311151014	   -0.60541912187806	   -0.56166812718637	    0.73973435946779	   -0.68364788188166	   -0.58553069360268	    0.54769451454656	   -0.67550138895641	   -0.65101065813695	    0.63556111418284	   -0.75020340281841	   -0.61281095668071	    0.41118234608413	   -0.66720162331598	   -0.64814311899504	    0.18656393975653	   -0.63207939677910	   -0.69653941583813	    0.29088937044695	   -0.71630781337522	   -0.77631805942255	    0.03233690969311	   -0.58594480690960	   -0.61788583618954	    0.09047857049631	   -0.63594341804438	   -0.69822493932206	    0.02881549911195	   -0.66424705394266	   -0.48762240405642	    0.04213208691343	   -0.65362582140359	   -0.58762202030533	    0.73885016558167	   -0.46915121595424	   -0.61677547618154	    0.57419572226668	   -0.47321552453212	   -0.69585273319437	    0.64536613777579	   -0.41090036415095	   -0.69557236298216	    0.41015391910185	   -0.44664818104388	   -0.78087622950822	    0.23057192067210	   -0.43966597485154	   -0.81063829143267	    0.34130521980776	   -0.39985665042544	   -0.94484084652174	    0.09635808774557	   -0.49215249033238	   -0.78251553934353	    0.11862451494277	   -0.41338098648034	   -0.88863980935990	    0.08300041900498	   -0.39714293478678	   -0.69250553412521	    0.05183154681103	   -0.34485662764394
80	   0.395	   -0.59348862173555	    0.96151143157280	   -0.46413217677505	   -0.58208519996078	    0.94706791165480	   -0.73343220874867	   -0.79621082761565	    1.03515721071103	   -0.60813118228957	   -0.55894167901290	    0.74045467175052	   -0.68143572387330	   -0.58207337792797	    0.54782338786157	   -0.67420770436921	   -0.64735388720813	    0.63553622534461	   -0.74904214983271	   -0.60974496217131	    0.41056232649640	   -0.66584917720735	   -0.64694584107634	    0.18613048619703	   -0.63132765063881	   -0.69405425212989	    0.29098757736077	   -0.71546983372202	   -0.77630409494603	    0.03231239657715	   -0.58592408965605	   -0.61783533759313	    0.09040149463425	   -0.63568383037643	   -0.69826256414042	    0.02889095608927	   -0.66426864363508	   -0.48758264349411	    0.04198031881056	   -0.65365638417349	   -0.58014488763184	    0.74723693983104	   -0.46009269302444	   -0.60120100601336	    0.58238640179931	   -0.45812598618882	   -0.68481528883735	    0.65191087836734	   -0.39988000440235	   -0.66733533061875	    0.41591020630011	   -0.42665894523124	   -0.73676246730358	    0.23014732602974	   -0.41284546008188	   -0.77602382906756	    0.33952094388580	   -0.37694701488879	   -0.88850083306528	    0.08033637777152	   -0.45954839442900	   -0.72836407428771	    0.11937654252740	   -0.38290189303959	   -0.83101850665112	    0.07518620166752	   -0.36475986659653	   -0.63237247484604	    0.06300628642065	   -0.31312676779060
81	   0.400	   -0.59455336268604	    0.96621785193466	   -0.46335012203290	   -0.58030751763868	    0.94773578091701	   -0.73300073469745	   -0.79730076903802	    1.03388421350691	   -0.61063742180401	   -0.55715028463497	    0.74069681940729	   -0.67997469483336	   -0.57967021305074	    0.54770263681763	   -0.67305156990275	   -0.64523431184900	    0.63529390985235	   -0.74777128560359	   -0.60758973591509	    0.41002088824682	   -0.66447604170407	   -0.64623958604067	    0.18573959642070	   -0.63060496049728	   -0.69241987913100	    0.29105906940459	   -0.71448644286964	   -0.77627266720163	    0.03225071357958	   -0.58585008807694	   -0.61781777725716	    0.09036587569999	   -0.63543785496546	   -0.69830314079325	    0.02894615911650	   -0.66424451056884	   -0.48758206029261	    0.04194367706262	   -0.65369282422723	   -0.57492215351498	    0.75602278638483	   -0.45041303622291	   -0.58946104703237	    0.59218901278349	   -0.44087730708210	   -0.67592934081820	    0.66116612053477	   -0.38607347207711	   -0.64345873391515	    0.42510200677683	   -0.40198513918629	   -0.69792383208611	    0.23538177322678	   -0.37788966030179	   -0.74488170356288	    0.34342292897836	   -0.34624243987086	   -0.83841354121042	    0.07221384767745	   -0.41384391473078	   -0.67994104378745	    0.12684384910095	   -0.34348178619044	   -0.77855876461825	    0.07597632351023	   -0.32066206173669	   -0.57806336014888	    0.08116953707396	   -0.27398388184606
